<?xml version="1.0" standalone="no"?><!DOCTYPE svg PUBLIC "-//W3C//DTD SVG 1.1//EN" "http://www.w3.org/Graphics/SVG/1.1/DTD/svg11.dtd"><svg t="1737128251399" class="icon" viewBox="0 0 1024 1024" version="1.1" xmlns="http://www.w3.org/2000/svg" p-id="4414" xmlns:xlink="http://www.w3.org/1999/xlink" width="200" height="200"><path d="M920.768 880.448h-267.712c20.672-57.728 30.624-117.696 29.568-178.688-1.024-57.824-11.872-116.416-32.224-174.208a628.96 628.96 0 0 0-35.616-81.792 1508.864 1508.864 0 0 1 65.92 75.808c39.488 48.512 71.584 33.472 83.552 24.736 20.864-15.232 34.304-48.896 36-90.144a216.8 216.8 0 0 0-5.28-56.8c10.176 4.896 20.864 7.712 32.448 7.712 12.736 0 25.472-3.36 38.848-10.368 18.176-9.504 30.784-26.848 36.448-50.176 4.96-20.512 4.32-44.672-1.888-69.952A223.104 223.104 0 0 0 832.32 164.16c-39.968-35.328-90.528-54.016-146.304-54.016-70.848 0-123.328 22.816-154.912 41.984a258.688 258.688 0 0 0-31.584 22.432 233.408 233.408 0 0 0-39.52-19.904c-21.792-8.704-66.24-23.328-119.104-23.328a258.72 258.72 0 0 0-104.096 21.024c-70.4 30.784-106.72 73.152-124.8 103.232-21.504 35.84-29.984 74.912-23.232 107.2 6.208 29.664 24.832 48.064 48.64 48.064 9.92 0 20.032-3.264 30.08-9.664 15.52-9.952 32.928-21.792 51.36-34.304l3.456-2.368a253.344 253.344 0 0 0-16.768 92.64c0.672 45.024 14.496 81.952 36.992 98.784 7.424 5.568 16.8 9.312 27.04 9.312 12.864 0 27.136-5.952 40.64-21.728 54.208-63.264 94.816-106.56 124.672-136.16 24.512 43.232 38.784 104.864 43.936 166.4v0.128a14.4 14.4 0 0 0 0.224 2.656c3.744 47.392 2.016 94.496-4.672 132.8-15.424 88.544-71.68 154.496-87.904 172H105.792a16.256 16.256 0 0 0 0 32.544h815.008a16.768 16.768 0 0 0-0.032-33.44z" fill="#FFFFFF" p-id="4415"></path><path d="M547.104 197.664c38.24-22.88 81.76-34.496 129.248-34.496 96.832 0 156.672 67.232 173.024 133.824 9.088 37.088 2.272 68.768-16.992 78.848-8.16 4.256-15.488 6.336-22.464 6.336-17.92 0-35.296-14.624-55.712-35.008l-0.064-0.064c-4.384-4.352-8.864-8.992-13.568-13.824-43.936-45.088-102.624-105.344-213.28-122.272a216 216 0 0 1 19.808-13.344z m-329.28 151.84c-17.248 11.712-33.472 22.784-47.776 31.936a23.424 23.424 0 0 1-11.84 4.288c-8.48 0-13.728-10.816-15.872-20.928-4.736-22.688 2.08-52.256 18.24-79.136 14.752-24.608 44.736-59.328 103.808-85.152a213.504 213.504 0 0 1 86.016-17.344c51.008 0 95.904 16.16 120.448 28.64-95.584 30.592-185.664 91.872-253.024 137.696z m80.256 172.256c-12.384 14.4-19.232 9.28-22.144 7.104-10.88-8.128-22.08-32.672-22.656-69.12-0.608-40.768 12.384-83.712 36.576-120.96l0.48-0.8c59.168-38.528 128.8-79.04 200.096-100l0.224 0.032c121.664 7.744 180.576 68.192 227.904 116.768 4.256 4.384 8.416 8.672 12.576 12.768 15.584 24.672 23.776 57.536 22.432 90.464-1.312 32.704-11.712 54.496-21.408 61.568-11.552 8.448-26.496-5.088-36.928-17.952-53.856-66.112-96.992-108.608-123.68-132.608a408.96 408.96 0 0 0-40.576-32.768c-15.232-10.432-23.904-13.44-31.936-11.136-19.936 5.792-84.48 60.768-200.96 196.64z" fill="#F0E7DB" p-id="4416"></path><path d="M512 331.936c18.304 19.616 128.8 118.88 151.808 147.136 37.28 45.824 75.136 63.04 86.4 54.816 19.712-14.368 32.448-46.176 34.016-85.152a202.784 202.784 0 0 0-4.992-53.664c9.632 4.64 19.712 7.328 30.656 7.328 12.064 0 24.032-3.232 36.672-9.856 17.152-8.96 29.056-25.344 34.4-47.392 4.704-19.328 4.096-42.144-1.792-66.016a210.24 210.24 0 0 0-64.672-106.144c-37.76-33.408-85.536-51.072-138.176-51.072-66.912 0-116.512 21.568-146.336 39.648-12.128 7.328-22.08 14.752-29.856 21.184l-1.632-1.056a224.352 224.352 0 0 0-35.68-17.76 312.064 312.064 0 0 0-112.48-22.016 243.584 243.584 0 0 0-98.304 19.904c-66.496 29.056-100.8 69.056-117.888 97.504-20.32 33.856-30.464 75.2-24.064 105.696 5.856 28 4.256 15.712 19.616 29.44l11.136 5.12c9.344 0 25.728-8.608 35.232-14.656 14.656-9.376 32.832-25.664 50.24-37.504 1.088-0.736 8.32-3.616 9.408-4.384-10.784 28.608-13.632 77.632-13.216 106.624 0.64 42.528 13.696 77.408 34.944 93.312 7.04 5.248 15.872 8.8 25.536 8.8 12.128 0 15.296-5.312 28.064-20.192 51.2-59.744 91.104-107.264 119.328-135.2L512 331.936z" fill="#F0E7DB" p-id="4417"></path><path d="M920.768 880.448h-267.712c20.672-57.728 30.624-117.696 29.568-178.688-1.024-57.824-11.872-116.416-32.224-174.208a628.96 628.96 0 0 0-35.616-81.792 1508.864 1508.864 0 0 1 65.92 75.808c39.488 48.512 71.584 33.472 83.552 24.736 20.864-15.232 34.304-48.896 36-90.144a216.8 216.8 0 0 0-5.28-56.8c10.176 4.896 20.864 7.712 32.448 7.712 12.736 0 25.472-3.36 38.848-10.368 18.176-9.504 30.784-26.848 36.448-50.176 4.96-20.512 4.32-44.672-1.888-69.952A223.104 223.104 0 0 0 832.32 164.16c-39.968-35.328-90.528-54.016-146.304-54.016-70.848 0-123.328 22.816-154.912 41.984a258.688 258.688 0 0 0-31.584 22.432 233.408 233.408 0 0 0-39.52-19.904c-21.792-8.704-66.24-23.328-119.104-23.328a258.72 258.72 0 0 0-104.096 21.024c-70.4 30.784-106.72 73.152-124.8 103.232-21.504 35.84-29.984 74.912-23.232 107.2 6.208 29.664 24.832 48.064 48.64 48.064 9.92 0 20.032-3.264 30.08-9.664 15.52-9.952 32.928-21.792 51.36-34.304l3.456-2.368a253.344 253.344 0 0 0-16.768 92.64c0.672 45.024 14.496 81.952 36.992 98.784 7.424 5.568 16.8 9.312 27.04 9.312 12.864 0 27.136-5.952 40.64-21.728 54.208-63.264 94.816-106.56 124.672-136.16 24.512 43.232 38.784 104.864 43.936 166.4v0.128a14.4 14.4 0 0 0 0.224 2.656c3.744 47.392 2.016 94.496-4.672 132.8-15.424 88.544-71.68 154.496-87.904 172H105.792a16.256 16.256 0 0 0 0 32.544h815.008a16.768 16.768 0 0 0-0.032-33.44z m-285.632-290.336a507.84 507.84 0 0 1 14.816 125.504h-143.584a3.584 3.584 0 0 1 0.128-0.672c6.496-37.344 8.576-80.896 6.176-124.768h121.888a2.88 2.88 0 0 1 0.576-0.064zM549.152 179.2c40.512-24.224 86.528-36.512 136.832-36.512 102.528 0 165.888 71.136 183.2 141.664 9.664 39.296 2.4 72.8-18.016 83.456-8.64 4.512-16.416 6.688-23.776 6.688-18.976 0-37.376-15.424-59.008-37.024l-0.064-0.064c-4.64-4.64-9.408-9.536-14.368-14.624-46.496-47.712-108.64-111.52-225.76-129.472 5.952-4.512 12.96-9.312 20.96-14.112zM200.544 339.968a2180.48 2180.48 0 0 1-50.592 33.792c-4.672 2.976-8.992 4.576-12.544 4.576-8.96 0-14.56-11.456-16.768-22.144-5.024-24.032 2.176-55.392 19.264-83.84 15.648-26.016 47.392-62.816 109.92-90.144a226.112 226.112 0 0 1 91.072-18.336c54.016 0 101.504 17.088 127.52 30.304-101.216 32.384-196.576 97.248-267.872 145.792z m84.96 182.336c-13.12 15.296-20.352 9.856-23.456 7.52-11.488-8.64-23.36-34.592-23.968-73.184-0.64-43.2 13.088-88.672 38.688-128.064l0.512-0.864c62.624-40.768 136.352-83.68 211.872-105.888l0.224 0.032c128.8 8.192 191.168 72.192 241.28 123.616l13.28 13.568c16.544 26.08 25.184 60.896 23.776 95.744-1.408 34.656-12.416 57.728-22.656 65.184-12.288 8.928-28.032-5.376-39.136-18.976-56.992-70.016-102.656-115.008-130.944-140.416a445.504 445.504 0 0 0-42.944-34.72c-16.096-10.976-25.28-14.176-33.792-11.712-21.056 6.144-89.44 64.32-212.736 208.16z m173.504-138.08c25.696-23.776 39.616-33.504 45.408-37.056a14.72 14.72 0 0 0 2.368 2.528c25.952 22.656 79.552 93.92 112.928 188.672 2.144 6.144 4.288 12.608 6.368 19.264h-116.064a620.64 620.64 0 0 0-2.72-22.24c-8.672-61.184-25.728-114.304-48.288-151.168z m39.808 363.936h149.632a468.992 468.992 0 0 1-30.464 133.152h-188.64c21.824-27.552 52.64-74.048 69.472-133.152z" fill="#473F3E" p-id="4418"></path></svg>