<svg viewBox="0 0 1024 1024" version="1.1" xmlns="http://www.w3.org/2000/svg" width="20" height="20">
  <path
    d="M124.672 1010.176c-3.072 0-6.4-0.768-9.472-2.048-11.776-5.12-16.896-18.944-11.776-30.72l81.408-181.76c5.12-11.776 18.944-16.896 30.72-11.776 11.776 5.12 16.896 18.944 11.776 30.72l-81.408 181.76C142.08 1005.056 133.632 1010.176 124.672 1010.176z"
  ></path>
  <path
    d="M230.4 1010.176c-3.072 0-6.4-0.768-9.472-2.048-11.776-5.12-16.896-18.944-11.776-30.72l81.408-181.76c5.12-11.776 18.944-16.896 30.72-11.776 11.776 5.12 16.896 18.944 11.776 30.72l-81.408 181.76C247.808 1005.056 239.36 1010.176 230.4 1010.176z"
  ></path>
  <path
    d="M927.488 1010.176c-8.96 0-17.408-5.12-21.248-13.824l-81.408-181.76c-5.12-11.776 0-25.344 11.776-30.72 11.776-5.12 25.344 0 30.72 11.776l81.408 181.76c5.12 11.776 0 25.344-11.776 30.72C933.888 1009.664 930.816 1010.176 927.488 1010.176z"
  ></path>
  <path
    d="M824.576 1010.176c-8.96 0-17.408-5.12-21.248-13.824l-81.408-181.76c-5.12-11.776 0-25.344 11.776-30.72 11.776-5.12 25.344 0 30.72 11.776l81.408 181.76c5.12 11.776 0 25.344-11.776 30.72C830.976 1009.664 827.648 1010.176 824.576 1010.176z"
  ></path>
  <path
    d="M969.984 828.416l-878.08 0c-29.696 0-54.016-24.32-54.016-54.016l0-78.848c0-12.8 10.496-23.296 23.296-23.296l908.8 0c29.696 0 54.016 24.32 54.016 54.016l0 48.128C1024 804.096 999.68 828.416 969.984 828.416zM84.224 718.592l0 55.808c0 4.352 3.584 7.68 7.68 7.68l878.08 0c4.096 0 7.68-3.584 7.68-7.68l0-48.128c0-4.096-3.584-7.68-7.68-7.68L84.224 718.592z"
  ></path>
  <path
    d="M196.608 716.288 62.208 716.288c-12.8 0-23.296-10.496-23.296-23.296l0-103.424c0-29.696 24.32-54.016 54.016-54.016l72.448 0c29.696 0 54.016 24.32 54.016 54.016l0 103.424C219.648 705.792 209.408 716.288 196.608 716.288zM85.504 669.952l87.808 0 0-80.128c0-4.096-3.584-7.68-7.68-7.68L93.184 582.144c-4.096 0-7.68 3.584-7.68 7.68L85.504 669.952z"
  ></path>
  <path
    d="M769.792 541.44c-6.144 0-12.032-2.816-16.128-7.68-38.912-48.384-80.896-75.008-124.672-78.848-57.856-5.376-99.84 30.208-100.096 30.72-4.608 4.096-10.752 5.632-16.896 4.608-6.144-1.024-11.264-4.608-14.336-9.984-37.888-65.28-89.088-98.816-152.576-99.584-47.872-0.512-84.736 17.92-84.992 18.176-5.376 2.816-11.776 3.072-17.408 0.768-5.632-2.304-9.984-6.912-11.776-12.8C213.76 333.568 174.848 300.8 115.2 289.28c-47.36-9.216-90.368-1.024-90.624-1.024-6.912 1.28-14.08-1.024-18.944-6.144-4.864-5.12-6.656-12.288-4.864-19.2 1.28-4.608 30.464-114.944 141.056-175.616 89.344-49.152 204.032-51.2 340.736-6.4 90.112 29.44 162.304 70.912 214.784 123.392 42.752 42.496 72.448 92.16 88.32 147.456 27.136 94.208 4.864 171.776 3.84 175.104-2.048 7.424-8.192 12.8-15.872 14.336C772.352 541.44 771.072 541.44 769.792 541.44zM617.216 413.184c5.12 0 10.24 0.256 15.36 0.768 44.032 4.096 85.504 24.832 123.904 61.952 2.56-28.416 2.304-69.376-11.008-114.432-32.768-110.848-125.44-192-275.712-241.408-125.696-41.216-229.376-39.936-308.224 3.328C99.072 157.696 66.56 211.2 51.456 243.968c18.944-0.768 43.776-0.512 70.144 4.608 67.328 12.544 115.456 48.64 140.544 104.96 18.688-6.656 48.64-14.336 83.2-14.08 50.688 0.512 120.576 19.2 175.872 101.12C541.184 428.8 575.232 413.184 617.216 413.184z"
  ></path>
  <path
    d="M501.76 102.4c-2.304 0-4.352-0.256-6.656-1.024-10.752-3.584-16.64-15.36-12.8-26.112l16.384-48.896c3.584-10.752 15.36-16.64 26.112-12.8 10.752 3.584 16.64 15.36 12.8 26.112l-16.384 48.896C518.4 96.768 510.464 102.4 501.76 102.4z"
  ></path>
  <path
    d="M515.328 490.496c-2.304 0-4.864-0.512-7.168-1.28-10.752-4.096-16.128-15.872-12.032-26.368 0.768-2.048 74.496-202.752 25.856-299.008-11.264-22.272-28.16-36.608-51.456-43.52-24.064-6.912-46.592-4.096-68.096 8.96-89.856 54.272-131.072 253.184-131.584 255.232-2.304 11.264-13.056 18.432-24.32 16.128-11.264-2.304-18.432-13.056-16.128-24.32 1.792-8.96 45.312-218.624 150.528-282.368 31.744-19.2 65.536-23.552 101.12-13.312 34.56 9.984 60.416 31.744 76.8 64.512 56.576 112.384-20.736 323.072-24.064 332.032C531.456 485.376 523.52 490.496 515.328 490.496z"
  ></path>
  <path
    d="M254.72 696.32c-3.328 0-6.656-0.768-9.728-2.048-11.52-5.376-16.64-19.2-11.264-30.72l130.304-279.808c5.376-11.52 19.2-16.64 30.72-11.264 11.52 5.376 16.64 19.2 11.264 30.72l-130.304 279.808C271.616 691.456 263.424 696.32 254.72 696.32z"
  ></path>
</svg>