<?xml version="1.0" standalone="no"?><!DOCTYPE svg PUBLIC "-//W3C//DTD SVG 1.1//EN" "http://www.w3.org/Graphics/SVG/1.1/DTD/svg11.dtd"><svg t="1739284725004" class="icon" viewBox="0 0 1024 1024" version="1.1" xmlns="http://www.w3.org/2000/svg" p-id="10175" xmlns:xlink="http://www.w3.org/1999/xlink" width="200" height="200"><path d="M604.45184 362.37824l-21.71904-21.72416 39.9104-39.90016c16.00512-16.01024 16.00512-42.06592 0-58.07616a40.79104 40.79104 0 0 0-29.05088-11.96032c-11.01312 0-21.32992 4.2496-29.04064 11.96032l-39.89504 39.90016-21.72416-21.72416 39.89504-39.89504c13.51168-13.5168 31.5392-20.96128 50.75968-20.96128 19.2256 0 37.25312 7.44448 50.76992 20.95616 27.98592 27.99104 27.98592 73.53344 0 101.52448l-39.90528 39.90016zM753.19296 503.04c-19.22048 0-37.248-7.44448-50.7648-20.95616l-50.7648-50.7648 50.75968-50.75968c13.52192-13.5168 31.54944-20.95616 50.76992-20.95616s37.248 7.43936 50.7648 20.95616c27.97568 27.99616 27.97568 73.53344 0.00512 101.51936-13.5168 13.5168-31.54944 20.96128-50.76992 20.96128z m-58.08128-71.72096l29.04064 29.04064c7.71584 7.71072 18.02752 11.96032 29.04576 11.96032s21.32992-4.2496 29.04576-11.96032c16-16.00512 16-42.06592-0.00512-58.08128-7.71072-7.7056-18.02752-11.9552-29.04064-11.9552s-21.32992 4.2496-29.04576 11.96032l-29.04064 29.03552z" fill="#CC1A1C" p-id="10176"></path><path d="M423.13216 362.37824l-39.89504-39.90016c-13.5168-13.51168-20.96128-31.5392-20.96128-50.75968s7.44448-37.248 20.96128-50.75968c13.51168-13.5168 31.5392-20.96128 50.75968-20.96128s37.24288 7.44448 50.75968 20.96128l39.90016 39.90016-21.72416 21.71904-39.89504-39.89504a40.7552 40.7552 0 0 0-29.03552-11.96032c-11.008 0-21.32992 4.2496-29.04064 11.96032-16.01024 16.01024-16.01024 42.06592 0 58.08128l39.90016 39.90016-21.72928 21.71392z" fill="#CC1A1C" p-id="10177"></path><path d="M524.6464 260.84864l79.80544 79.80032-21.72416 21.72416L502.92736 282.5728z" fill="#CC1A1C" p-id="10178"></path><path d="M502.92736 260.85376l21.71904 21.71392-79.80032 79.80032-21.71904-21.71904zM662.57408 420.44416l21.72416 21.72416-79.80032 79.80032-21.72416-21.72416z" fill="#CC1A1C" p-id="10179"></path><path d="M604.45184 340.65408l79.80032 79.80032-21.71904 21.71392-79.80032-79.7952z" fill="#CC1A1C" p-id="10180"></path><path d="M582.73792 340.64384l21.72928 21.71904-79.79008 79.81056-21.72416-21.71904zM365.06112 420.4544l79.80032 79.7952-21.71904 21.71904L343.3472 442.16832z" fill="#CC1A1C" p-id="10181"></path><path d="M423.13216 340.65408l21.71904 21.71904L365.056 442.17344l-21.71904-21.71904z" fill="#CC1A1C" p-id="10182"></path><path d="M444.8512 340.64896l79.80032 79.80032-21.71904 21.71904-79.80032-79.80032zM524.66176 420.4544l79.80032 79.7952-21.71904 21.72416L502.9376 442.17344z" fill="#CC1A1C" p-id="10183"></path><path d="M502.96832 420.4544l21.72416 21.71904-79.80032 79.80032-21.72416-21.72416zM593.59232 662.64064c-19.22048 0-37.248-7.44448-50.75968-20.96128l-39.89504-39.90016 21.72416-21.71904 39.89504 39.90016a40.77568 40.77568 0 0 0 29.04064 11.96032c11.01824 0 21.33504-4.2496 29.05088-11.96032 16.00512-16.01536 16.00512-42.06592 0-58.08128l-39.9104-39.90016 21.71904-21.72416 39.9104 39.90528c27.98592 27.99104 27.98592 73.52832 0 101.51936-13.52192 13.5168-31.55456 20.96128-50.77504 20.96128z" fill="#CC1A1C" p-id="10184"></path><path d="M582.74304 500.24448l21.72416 21.71904-79.78496 79.81568-21.72928-21.71904zM274.39104 503.04c-19.22048 0-37.24288-7.44448-50.75968-20.96128-13.5168-13.51168-20.95616-31.5392-20.95616-50.75968s7.44448-37.248 20.96128-50.7648c13.51168-13.5168 31.5392-20.95616 50.75456-20.95616 19.22048 0 37.248 7.43936 50.7648 20.95616l50.75456 50.75968-50.75456 50.7648c-13.5168 13.5168-31.54432 20.96128-50.7648 20.96128z m0-112.72192a40.73984 40.73984 0 0 0-29.0304 11.9552 40.76032 40.76032 0 0 0-11.96032 29.04064c0 11.01312 4.2496 21.3248 11.96032 29.03552a40.73984 40.73984 0 0 0 29.03552 11.96032c11.01312 0 21.32992-4.2496 29.04576-11.96032l29.03552-29.03552-29.03552-29.04064a40.82176 40.82176 0 0 0-29.05088-11.9552zM433.9968 662.64064c-19.22048 0-37.248-7.44448-50.75968-20.96128-13.5168-13.5168-20.96128-31.5392-20.96128-50.75968s7.44448-37.24288 20.96128-50.75968l39.89504-39.90016 21.72416 21.71904-39.90016 39.90528c-16.01024 16.01536-16.01024 42.06592 0 58.08128 7.71072 7.71072 18.02752 11.96032 29.04064 11.96032s21.3248-4.2496 29.03552-11.96032l39.90016-39.90016 21.72416 21.71904-39.90016 39.90016c-13.5168 13.51168-31.5392 20.95616-50.75968 20.95616z" fill="#CC1A1C" p-id="10185"></path><path d="M444.8512 500.2496l79.80032 79.80032-21.71904 21.72416-79.80032-79.80032z" fill="#CC1A1C" p-id="10186"></path><path d="M513.80224 195.88608m-24.99072 0a24.99072 24.99072 0 1 0 49.98144 0 24.99072 24.99072 0 1 0-49.98144 0Z" fill="#CC1A1C" p-id="10187"></path><path d="M513.80224 134.08768m-24.99072 0a24.99072 24.99072 0 1 0 49.98144 0 24.99072 24.99072 0 1 0-49.98144 0Z" fill="#CC1A1C" p-id="10188"></path><path d="M513.80224 72.29952m-24.99072 0a24.99072 24.99072 0 1 0 49.98144 0 24.99072 24.99072 0 1 0-49.98144 0Z" fill="#CC1A1C" p-id="10189"></path><path d="M562.12992 686.23872a68.1472 68.1472 0 0 0-48.35328-20.0448c-37.72928 0-68.39296 30.61248-68.39296 68.39296v242.24768h32.01536v-244.7104a12.48256 12.48256 0 0 1 12.47744-12.47744c3.456 0 6.56384 1.40288 8.86784 3.6608 2.2528 2.2528 3.6608 5.36576 3.6608 8.81664v244.7104h24.94464v-244.7104a12.49792 12.49792 0 0 1 21.34016-8.81664c2.25792 2.2528 3.67104 5.36576 3.67104 8.81664v244.7104h29.80864v-242.24768c0-18.88768-7.66976-35.97824-20.03968-48.34816z" fill="#CC1A1C" p-id="10190"></path></svg>